<svg xmlns="http://www.w3.org/2000/svg" viewBox="0 0 16 16">
    <path style="line-height:normal;text-indent:0;text-align:start;text-decoration-line:none;text-decoration-style:solid;text-decoration-color:#000;text-transform:none;block-progression:tb;isolation:auto;mix-blend-mode:normal" d="M 6.4960938 1 C 5.6752813 1 5 1.6752812 5 2.4960938 L 5 3 L 2.5 3 L 2 3 L 2 4 L 2.5 4 L 3 4 L 3 12.5 C 3 13.322531 3.6774686 14 4.5 14 L 10.5 14 C 11.322531 14 12 13.322531 12 12.5 L 12 4 L 12.5 4 L 13 4 L 13 3 L 12.5 3 L 10 3 L 10 2.4960938 C 10 1.6752812 9.3247187 1 8.5039062 1 L 6.4960938 1 z M 6.4960938 2 L 8.5039062 2 C 8.7850939 2 9 2.2149062 9 2.4960938 L 9 4 L 11 4 L 11 12.5 C 11 12.781469 10.781469 13 10.5 13 L 4.5 13 C 4.2185314 13 4 12.781469 4 12.5 L 4 4 L 6 4 L 6 2.4960938 C 6 2.2149062 6.2149062 2 6.4960938 2 z M 5.7285156 6.0214844 L 5.0214844 6.7285156 L 6.7929688 8.5 L 5.0214844 10.271484 L 5.7285156 10.978516 L 7.5 9.2070312 L 9.2714844 10.978516 L 9.9785156 10.271484 L 8.2070312 8.5 L 9.9785156 6.7285156 L 9.2714844 6.0214844 L 7.5 7.7929688 L 5.7285156 6.0214844 z" color="#000" font-weight="400" font-family="sans-serif" white-space="normal" overflow="visible"/>
</svg>
